<svg width="16" height="16" viewBox="0 0 16 16" fill="none" xmlns="http://www.w3.org/2000/svg">
<path d="M13.5 12C13.5 12.2761 13.7239 12.5 14 12.5C14.2761 12.5 14.5 12.2761 14.5 12H13.5ZM1.5 12C1.5 12.2761 1.72386 12.5 2 12.5C2.27614 12.5 2.5 12.2761 2.5 12H1.5ZM3.60982 13.9616L3.51227 14.452L3.60982 13.9616ZM2.03843 12.3902L1.54804 12.4877L2.03843 12.3902ZM5.32052 13.4634L5.81092 13.5609L5.32052 13.4634ZM4.79673 13.9872L4.89427 14.4776L4.79673 13.9872ZM4.96933 9.406L4.74233 9.8515L4.96933 9.406ZM5.26067 9.69734L4.81517 9.92434L5.26067 9.69734ZM2.36401 9.406L2.591 9.8515L2.36401 9.406ZM2.07266 9.69734L2.51817 9.92434L2.07266 9.69734ZM11.2033 13.9872L11.1057 14.4776L11.2033 13.9872ZM10.6795 13.4634L10.1891 13.5609L10.6795 13.4634ZM13.9616 12.3902L14.452 12.4877L13.9616 12.3902ZM12.3902 13.9616L12.4877 14.452L12.3902 13.9616ZM13.636 9.406L13.409 9.8515L13.636 9.406ZM13.9273 9.69734L13.4818 9.92434L13.9273 9.69734ZM11.0307 9.406L11.2577 9.8515L11.0307 9.406ZM10.7393 9.69734L11.1848 9.92434L10.7393 9.69734ZM13.5 8V12H14.5V8H13.5ZM2.5 12V8H1.5V12H2.5ZM8 2.5C11.0376 2.5 13.5 4.96243 13.5 8H14.5C14.5 4.41015 11.5899 1.5 8 1.5V2.5ZM8 1.5C4.41015 1.5 1.5 4.41015 1.5 8H2.5C2.5 4.96243 4.96243 2.5 8 2.5V1.5ZM3.06667 9.83333H4.26667V8.83333H3.06667V9.83333ZM4.83333 10.4V13.1667H5.83333V10.4H4.83333ZM2.5 11.5V10.4H1.5V11.5H2.5ZM4.5 13.5C4.01138 13.5 3.84009 13.4976 3.70736 13.4712L3.51227 14.452C3.76595 14.5024 4.05931 14.5 4.5 14.5V13.5ZM1.5 11.5C1.5 11.9407 1.49758 12.2341 1.54804 12.4877L2.52882 12.2926C2.50242 12.1599 2.5 11.9886 2.5 11.5H1.5ZM3.70736 13.4712C3.11233 13.3528 2.64718 12.8877 2.52882 12.2926L1.54804 12.4877C1.7453 13.4795 2.52055 14.2547 3.51227 14.452L3.70736 13.4712ZM4.83333 13.1667C4.83333 13.2475 4.83327 13.2956 4.83203 13.3319C4.83085 13.3662 4.82903 13.3714 4.83013 13.3658L5.81092 13.5609C5.83576 13.4361 5.83333 13.2976 5.83333 13.1667H4.83333ZM4.5 14.5C4.63092 14.5 4.7694 14.5024 4.89427 14.4776L4.69918 13.4968C4.70472 13.4957 4.69949 13.4975 4.66519 13.4987C4.62895 13.4999 4.58083 13.5 4.5 13.5V14.5ZM4.83013 13.3658C4.81698 13.432 4.7653 13.4836 4.69918 13.4968L4.89427 14.4776C5.35708 14.3855 5.71886 14.0237 5.81092 13.5609L4.83013 13.3658ZM4.26667 9.83333C4.4616 9.83333 4.57773 9.83372 4.66382 9.84076C4.74406 9.84731 4.75326 9.85707 4.74233 9.8515L5.19632 8.96049C5.04278 8.88226 4.88734 8.85569 4.74525 8.84408C4.609 8.83294 4.4451 8.83333 4.26667 8.83333V9.83333ZM5.83333 10.4C5.83333 10.2216 5.83372 10.0577 5.82259 9.92142C5.81098 9.77933 5.78441 9.62388 5.70617 9.47034L4.81517 9.92434C4.8096 9.9134 4.81935 9.9226 4.82591 10.0029C4.83294 10.0889 4.83333 10.2051 4.83333 10.4H5.83333ZM4.74233 9.8515C4.77369 9.86748 4.79919 9.89297 4.81517 9.92434L5.70617 9.47034C5.59432 9.25082 5.41584 9.07234 5.19632 8.96049L4.74233 9.8515ZM3.06667 8.83333C2.88823 8.83333 2.72434 8.83294 2.58809 8.84408C2.446 8.85569 2.29055 8.88226 2.13701 8.96049L2.591 9.8515C2.58007 9.85707 2.58927 9.84731 2.66952 9.84076C2.7556 9.83372 2.87173 9.83333 3.06667 9.83333V8.83333ZM2.5 10.4C2.5 10.2051 2.50039 10.0889 2.50742 10.0029C2.51398 9.9226 2.52373 9.9134 2.51817 9.92434L1.62716 9.47034C1.54893 9.62388 1.52235 9.77933 1.51074 9.92142C1.49961 10.0577 1.5 10.2216 1.5 10.4H2.5ZM2.13701 8.96049C1.91749 9.07234 1.73901 9.25082 1.62716 9.47034L2.51817 9.92434C2.53414 9.89297 2.55964 9.86748 2.591 9.8515L2.13701 8.96049ZM11.7333 9.83333H12.9333V8.83333H11.7333V9.83333ZM13.5 10.4V11.5H14.5V10.4H13.5ZM11.1667 13.1667V10.4H10.1667V13.1667H11.1667ZM11.5 13.5C11.4192 13.5 11.371 13.4999 11.3348 13.4987C11.3005 13.4975 11.2953 13.4957 11.3008 13.4968L11.1057 14.4776C11.2306 14.5024 11.3691 14.5 11.5 14.5V13.5ZM10.1667 13.1667C10.1667 13.2976 10.1642 13.4361 10.1891 13.5609L11.1699 13.3658C11.171 13.3714 11.1691 13.3662 11.168 13.3319C11.1667 13.2956 11.1667 13.2475 11.1667 13.1667H10.1667ZM11.3008 13.4968C11.2347 13.4836 11.183 13.432 11.1699 13.3658L10.1891 13.5609C10.2811 14.0237 10.6429 14.3855 11.1057 14.4776L11.3008 13.4968ZM13.5 11.5C13.5 11.9886 13.4976 12.1599 13.4712 12.2926L14.452 12.4877C14.5024 12.2341 14.5 11.9407 14.5 11.5H13.5ZM11.5 14.5C11.9407 14.5 12.2341 14.5024 12.4877 14.452L12.2926 13.4712C12.1599 13.4976 11.9886 13.5 11.5 13.5V14.5ZM13.4712 12.2926C13.3528 12.8877 12.8877 13.3528 12.2926 13.4712L12.4877 14.452C13.4795 14.2547 14.2547 13.4795 14.452 12.4877L13.4712 12.2926ZM12.9333 9.83333C13.1283 9.83333 13.2444 9.83372 13.3305 9.84076C13.4107 9.84731 13.4199 9.85707 13.409 9.8515L13.863 8.96049C13.7095 8.88226 13.554 8.85569 13.4119 8.84408C13.2757 8.83294 13.1118 8.83333 12.9333 8.83333V9.83333ZM14.5 10.4C14.5 10.2216 14.5004 10.0577 14.4893 9.92142C14.4776 9.77933 14.4511 9.62388 14.3728 9.47034L13.4818 9.92434C13.4763 9.9134 13.486 9.9226 13.4926 10.0029C13.4996 10.0889 13.5 10.2051 13.5 10.4H14.5ZM13.409 9.8515C13.4404 9.86748 13.4659 9.89297 13.4818 9.92434L14.3728 9.47034C14.261 9.25082 14.0825 9.07234 13.863 8.96049L13.409 9.8515ZM11.7333 8.83333C11.5549 8.83333 11.391 8.83294 11.2548 8.84408C11.1127 8.85569 10.9572 8.88226 10.8037 8.96049L11.2577 9.8515C11.2467 9.85707 11.2559 9.84731 11.3362 9.84076C11.4223 9.83372 11.5384 9.83333 11.7333 9.83333V8.83333ZM11.1667 10.4C11.1667 10.2051 11.1671 10.0889 11.1741 10.0029C11.1806 9.9226 11.1904 9.9134 11.1848 9.92434L10.2938 9.47034C10.2156 9.62388 10.189 9.77933 10.1774 9.92142C10.1663 10.0577 10.1667 10.2216 10.1667 10.4H11.1667ZM10.8037 8.96049C10.5842 9.07234 10.4057 9.25082 10.2938 9.47034L11.1848 9.92434C11.2008 9.89297 11.2263 9.86748 11.2577 9.8515L10.8037 8.96049Z" fill="#B9BBBE"/>
</svg>
