<svg width="24" height="24" viewBox="0 0 24 24" fill="none" xmlns="http://www.w3.org/2000/svg">
<path d="M17.4976 16.2119L16.9396 16.7131C17.0819 16.8715 17.2847 16.9619 17.4976 16.9619C17.7105 16.9619 17.9133 16.8715 18.0556 16.7131L17.4976 16.2119ZM14.4425 18.6868L15.0236 18.2126L14.4425 18.6868ZM20.5527 18.6868L19.9716 18.2126L20.5527 18.6868ZM16.4854 20.6353L16.9783 20.07L16.4854 20.6353ZM17.2147 21.1503L17.4269 20.4309L17.2147 21.1503ZM18.5098 20.6353L18.017 20.07L18.5098 20.6353ZM17.7805 21.1503L17.9927 21.8696L17.7805 21.1503ZM2.25 21C2.25 21.4142 2.58579 21.75 3 21.75C3.41421 21.75 3.75 21.4142 3.75 21H2.25ZM10.8938 14.8133C11.3038 14.872 11.6838 14.5871 11.7424 14.1771C11.8011 13.767 11.5162 13.3871 11.1062 13.3284L10.8938 14.8133ZM18.0556 15.7108C17.1314 14.6818 15.5152 14.3504 14.2808 15.3549L15.2275 16.5184C15.7466 16.096 16.4643 16.1838 16.9396 16.7131L18.0556 15.7108ZM14.2808 15.3549C13.0915 16.3227 12.9034 17.9869 13.8614 19.161L15.0236 18.2126C14.6045 17.6991 14.6633 16.9776 15.2275 16.5184L14.2808 15.3549ZM21.1338 19.161C22.0848 17.9956 21.9293 16.3165 20.7066 15.3486L19.7756 16.5247C20.3365 16.9687 20.3978 17.6904 19.9716 18.2126L21.1338 19.161ZM20.7066 15.3486C19.4649 14.3657 17.8693 14.6757 16.9396 15.7108L18.0556 16.7131C18.5255 16.1899 19.2336 16.0957 19.7756 16.5247L20.7066 15.3486ZM13.8614 19.161C14.2987 19.697 15.2767 20.5765 15.9925 21.2006L16.9783 20.07C16.2329 19.4202 15.3636 18.6294 15.0236 18.2126L13.8614 19.161ZM19.0027 21.2006C19.7186 20.5765 20.6965 19.697 21.1338 19.161L19.9716 18.2126C19.6316 18.6294 18.7623 19.4202 18.017 20.07L19.0027 21.2006ZM15.9925 21.2006C16.2859 21.4564 16.5986 21.7505 17.0025 21.8696L17.4269 20.4309C17.4354 20.4334 17.419 20.4327 17.3467 20.3794C17.2641 20.3185 17.1605 20.2289 16.9783 20.07L15.9925 21.2006ZM18.017 20.07C17.8347 20.2289 17.7311 20.3185 17.6485 20.3794C17.5762 20.4327 17.5598 20.4334 17.5683 20.4309L17.9927 21.8696C18.3966 21.7505 18.7093 21.4564 19.0027 21.2006L18.017 20.07ZM17.0025 21.8696C17.3197 21.9632 17.6755 21.9632 17.9927 21.8696L17.5683 20.4309C17.5282 20.4427 17.467 20.4427 17.4269 20.4309L17.0025 21.8696ZM13.25 7C13.25 8.79493 11.7949 10.25 10 10.25V11.75C12.6234 11.75 14.75 9.62335 14.75 7H13.25ZM10 10.25C8.20507 10.25 6.75 8.79493 6.75 7H5.25C5.25 9.62335 7.37665 11.75 10 11.75V10.25ZM6.75 7C6.75 5.20507 8.20507 3.75 10 3.75V2.25C7.37665 2.25 5.25 4.37665 5.25 7H6.75ZM10 3.75C11.7949 3.75 13.25 5.20507 13.25 7H14.75C14.75 4.37665 12.6234 2.25 10 2.25V3.75ZM3.75 21C3.75 17.5482 6.54822 14.75 10 14.75V13.25C5.71979 13.25 2.25 16.7198 2.25 21H3.75ZM10 14.75C10.3039 14.75 10.6023 14.7716 10.8938 14.8133L11.1062 13.3284C10.7445 13.2767 10.3752 13.25 10 13.25V14.75Z" fill="white"/>
</svg>
