<svg width="16" height="16" viewBox="0 0 16 16" fill="none" xmlns="http://www.w3.org/2000/svg">
<path d="M10 8C10 9.10457 9.10457 10 8 10C6.89543 10 6 9.10457 6 8C6 6.89543 6.89543 6 8 6C9.10457 6 10 6.89543 10 8Z" stroke="#B9BBBE" stroke-linecap="round" stroke-linejoin="round"/>
<path d="M8.60307 2.04003C8.46588 2 8.31059 2 8 2C7.68941 2 7.53412 2 7.39693 2.04003C7.19612 2.09862 7.01874 2.21872 6.88975 2.38341C6.80163 2.49592 6.74396 2.64011 6.62861 2.92848C6.4628 3.34301 6.00262 3.55647 5.57905 3.41533L5.19852 3.28854C4.9286 3.19856 4.79363 3.15357 4.66131 3.14587C4.46693 3.13454 4.27347 3.18021 4.10467 3.27727C3.98977 3.34334 3.88917 3.44394 3.68798 3.64513C3.47414 3.85896 3.36723 3.96588 3.2993 4.08792C3.19951 4.26723 3.1573 4.47289 3.17839 4.67701C3.19275 4.81594 3.2489 4.95633 3.36121 5.2371C3.5371 5.67682 3.36789 6.17919 2.96181 6.42289L2.77681 6.53392C2.49354 6.70388 2.35191 6.78886 2.24903 6.90586C2.15799 7.00939 2.08934 7.13064 2.0474 7.26198C2 7.41039 2 7.57721 2 7.91084C2 8.3059 2 8.50343 2.06308 8.67251C2.11882 8.82191 2.20948 8.95582 2.32749 9.06306C2.46105 9.18442 2.64263 9.25705 3.00578 9.40231C3.37689 9.55076 3.56797 9.96275 3.44158 10.3419L3.29814 10.7722C3.19879 11.0703 3.14912 11.2193 3.1446 11.3657C3.13917 11.5418 3.18033 11.7161 3.26391 11.8712C3.33343 12.0001 3.44452 12.1112 3.66667 12.3333C3.88882 12.5555 3.9999 12.6666 4.12883 12.7361C4.28387 12.8197 4.45822 12.8608 4.63427 12.8554C4.78068 12.8509 4.92971 12.8012 5.22776 12.7019L5.57908 12.5848C6.00262 12.4436 6.4628 12.657 6.62861 13.0715C6.74396 13.3599 6.80163 13.5041 6.88975 13.6166C7.01874 13.7813 7.19612 13.9014 7.39693 13.96C7.53412 14 7.68941 14 8 14C8.31059 14 8.46588 14 8.60307 13.96C8.80388 13.9014 8.98126 13.7813 9.11025 13.6166C9.19837 13.5041 9.25604 13.3599 9.37139 13.0715C9.53719 12.657 9.99738 12.4436 10.4209 12.5848L10.772 12.7019C11.07 12.8013 11.219 12.8509 11.3655 12.8555C11.5415 12.8609 11.7159 12.8197 11.8709 12.7361C11.9998 12.6666 12.1109 12.5555 12.3331 12.3334C12.5552 12.1112 12.6663 12.0002 12.7358 11.8712C12.8194 11.7162 12.8606 11.5418 12.8551 11.3658C12.8506 11.2194 12.8009 11.0703 12.7016 10.7723L12.5582 10.3423C12.4318 9.96292 12.623 9.55078 12.9942 9.40231C13.3574 9.25705 13.5389 9.18442 13.6725 9.06306C13.7905 8.95582 13.8812 8.82191 13.9369 8.67251C14 8.50343 14 8.3059 14 7.91084C14 7.57721 14 7.41039 13.9526 7.26198C13.9107 7.13064 13.842 7.00939 13.751 6.90586C13.6481 6.78886 13.5065 6.70388 13.2232 6.53392L13.038 6.42277C12.6319 6.17912 12.4626 5.67676 12.6385 5.23705C12.7508 4.95628 12.807 4.81588 12.8213 4.67696C12.8424 4.47284 12.8002 4.26718 12.7004 4.08787C12.6325 3.96583 12.5256 3.85891 12.3117 3.64508C12.1106 3.44389 12.01 3.34329 11.8951 3.27722C11.7263 3.18016 11.5328 3.13449 11.3384 3.14582C11.2061 3.15352 11.0711 3.19851 10.8012 3.28849L10.4209 3.41525C9.99738 3.55643 9.5372 3.343 9.37139 2.92848C9.25604 2.6401 9.19837 2.49592 9.11025 2.38341C8.98126 2.21872 8.80388 2.09862 8.60307 2.04003Z" stroke="#B9BBBE" stroke-linecap="round" stroke-linejoin="round"/>
</svg>
